<svg width="20" height="20" viewBox="0 0 20 20" fill="none" xmlns="http://www.w3.org/2000/svg">
<path d="M4.10746 7.5C2.59943 8.75 1.66669 10 1.66669 10C1.66669 10 5.39765 15 10 15C10.5708 15 11.1282 14.9231 11.6667 14.7884M8.3466 5.20833C8.88102 5.07567 9.43394 5 10 5C14.6024 5 18.3334 10 18.3334 10C18.3334 10 17.4006 11.25 15.8926 12.5" stroke="#15151E" stroke-linecap="round" stroke-linejoin="round"/>
<path d="M8.46427 8.59213C8.12423 8.96288 7.91669 9.45717 7.91669 9.99992C7.91669 11.1505 8.84944 12.0833 10 12.0833C10.5678 12.0833 11.0826 11.8561 11.4584 11.4877" stroke="#15151E" stroke-linecap="round" stroke-linejoin="round"/>
<path d="M17.5 17.5L2.5 2.5" stroke="#15151E" stroke-linecap="round" stroke-linejoin="round"/>
</svg>
