<svg width="190" height="80" viewBox="0 0 190 80" fill="none" xmlns="http://www.w3.org/2000/svg">
<path d="M111.359 52.6364V73H106.437V52.6364H111.359ZM119.311 64.2898V73H114.449V57.7273H119.072V60.5312H119.241C119.579 59.5966 120.156 58.8641 120.971 58.3338C121.787 57.7969 122.758 57.5284 123.885 57.5284C124.959 57.5284 125.89 57.7704 126.679 58.2543C127.474 58.7315 128.091 59.401 128.528 60.2628C128.972 61.1179 129.191 62.1188 129.185 63.2656V73H124.322V64.2202C124.329 63.3717 124.114 62.7088 123.676 62.2315C123.245 61.7543 122.645 61.5156 121.876 61.5156C121.366 61.5156 120.915 61.6283 120.524 61.8537C120.14 62.0724 119.841 62.3873 119.629 62.7983C119.424 63.2093 119.318 63.7064 119.311 64.2898ZM145.529 62.3906L141.064 62.5099C141.018 62.1918 140.892 61.91 140.686 61.6648C140.481 61.4129 140.212 61.2173 139.881 61.0781C139.556 60.9323 139.178 60.8594 138.747 60.8594C138.184 60.8594 137.703 60.9721 137.306 61.1974C136.915 61.4228 136.722 61.7277 136.729 62.1122C136.722 62.4105 136.842 62.669 137.087 62.8878C137.339 63.1065 137.786 63.2822 138.429 63.4148L141.372 63.9716C142.897 64.2633 144.031 64.7472 144.773 65.4233C145.522 66.0994 145.9 66.9943 145.906 68.108C145.9 69.1553 145.588 70.0668 144.972 70.8423C144.362 71.6179 143.527 72.2211 142.466 72.652C141.406 73.0762 140.192 73.2884 138.827 73.2884C136.646 73.2884 134.926 72.8409 133.666 71.946C132.414 71.0445 131.698 69.8381 131.519 68.3267L136.321 68.2074C136.427 68.7642 136.702 69.1884 137.147 69.4801C137.591 69.7718 138.157 69.9176 138.847 69.9176C139.47 69.9176 139.977 69.8016 140.368 69.5696C140.759 69.3376 140.958 69.0294 140.965 68.6449C140.958 68.3002 140.806 68.0251 140.507 67.8196C140.209 67.6075 139.742 67.4418 139.105 67.3224L136.441 66.8153C134.909 66.5369 133.769 66.0232 133.02 65.2741C132.271 64.5185 131.9 63.5573 131.906 62.3906C131.9 61.3698 132.172 60.4981 132.722 59.7756C133.272 59.0464 134.054 58.4896 135.068 58.1051C136.083 57.7206 137.279 57.5284 138.658 57.5284C140.726 57.5284 142.357 57.9626 143.55 58.831C144.743 59.6927 145.403 60.8793 145.529 62.3906ZM148.3 73V57.7273H153.163V73H148.3ZM150.736 55.9474C150.054 55.9474 149.467 55.7221 148.976 55.2713C148.486 54.8139 148.241 54.2637 148.241 53.6207C148.241 52.9844 148.486 52.4408 148.976 51.9901C149.467 51.5327 150.054 51.304 150.736 51.304C151.426 51.304 152.012 51.5327 152.496 51.9901C152.987 52.4408 153.232 52.9844 153.232 53.6207C153.232 54.2637 152.987 54.8139 152.496 55.2713C152.012 55.7221 151.426 55.9474 150.736 55.9474ZM161.835 73.2188C160.709 73.2188 159.684 72.9271 158.763 72.3438C157.842 71.7604 157.106 70.8854 156.556 69.7188C156.005 68.5521 155.73 67.1037 155.73 65.3736C155.73 63.5772 156.015 62.099 156.585 60.9389C157.156 59.7789 157.901 58.9205 158.823 58.3636C159.751 57.8068 160.748 57.5284 161.816 57.5284C162.618 57.5284 163.304 57.6676 163.874 57.946C164.444 58.2178 164.915 58.5691 165.286 59C165.657 59.4309 165.939 59.8783 166.131 60.3423H166.23V52.6364H171.093V73H166.28V70.5241H166.131C165.925 70.9948 165.634 71.4356 165.256 71.8466C164.878 72.2576 164.404 72.589 163.834 72.8409C163.271 73.0928 162.604 73.2188 161.835 73.2188ZM163.526 69.4304C164.116 69.4304 164.62 69.2647 165.037 68.9332C165.455 68.5952 165.776 68.1212 166.002 67.5114C166.227 66.9015 166.34 66.1856 166.34 65.3636C166.34 64.5284 166.227 63.8092 166.002 63.206C165.783 62.6027 165.461 62.1387 165.037 61.8139C164.62 61.4891 164.116 61.3267 163.526 61.3267C162.923 61.3267 162.412 61.4924 161.995 61.8239C161.577 62.1553 161.259 62.6226 161.04 63.2259C160.828 63.8291 160.722 64.5417 160.722 65.3636C160.722 66.1856 160.831 66.9015 161.05 67.5114C161.269 68.1212 161.584 68.5952 161.995 68.9332C162.412 69.2647 162.923 69.4304 163.526 69.4304ZM181.307 73.2884C179.709 73.2884 178.33 72.9735 177.17 72.3438C176.017 71.7074 175.129 70.8026 174.506 69.6293C173.889 68.4493 173.581 67.0473 173.581 65.4233C173.581 63.8456 173.892 62.4669 174.516 61.2869C175.139 60.1004 176.017 59.179 177.15 58.5227C178.284 57.8598 179.62 57.5284 181.158 57.5284C182.245 57.5284 183.239 57.6974 184.141 58.0355C185.042 58.3736 185.821 58.8741 186.477 59.5369C187.133 60.1998 187.644 61.0185 188.008 61.9929C188.373 62.9607 188.555 64.071 188.555 65.3239V66.5369H175.281V63.7131H184.031C184.025 63.196 183.902 62.7353 183.663 62.331C183.425 61.9266 183.096 61.6117 182.679 61.3864C182.268 61.1544 181.794 61.0384 181.257 61.0384C180.713 61.0384 180.226 61.161 179.795 61.4062C179.364 61.6449 179.023 61.973 178.771 62.3906C178.519 62.8016 178.387 63.2689 178.373 63.7926V66.6662C178.373 67.2893 178.496 67.8362 178.741 68.3068C178.987 68.7708 179.335 69.1321 179.785 69.3906C180.236 69.6491 180.773 69.7784 181.396 69.7784C181.827 69.7784 182.218 69.7187 182.569 69.5994C182.921 69.4801 183.222 69.3045 183.474 69.0724C183.726 68.8404 183.915 68.5554 184.041 68.2173L188.506 68.3466C188.32 69.3475 187.912 70.2192 187.283 70.9616C186.659 71.6974 185.841 72.2708 184.827 72.6818C183.812 73.0862 182.639 73.2884 181.307 73.2884Z" fill="white"/>
<path d="M49.52 24.28L48.8 27.24L49.12 30.04L49.04 31.8L48.24 34.84L44 35.56L40.4 35.48L37.2 35.32L34.64 35.48L31.6 35.4L28.8 35.56L27.04 35.4L25.52 35.48L24.48 35.64L24.32 36.92L24 40.12L23.84 41.4L25.28 41.24L27.04 41.08L28.72 41.64L30.08 41.48L33.28 41.24L35.12 41L36.64 41.48L38.72 41.4H40.4L43.84 41L46.8 42.04L47.04 45.8L47.44 48.12V55.16L45.76 58.04L43.84 57.88L42.4 57.96L40.72 57.8H38.8L36.08 58.2L30.32 57.56L27.04 57.48L25.52 57.4L23.84 57.8V59.8L24 62.68L24.08 65.32L24.48 66.76L24.32 67.72L24 71L23.84 72.84L21.44 75.8L20.32 75.4L18.8 75.24L17.44 75H15.92L14.32 74.84L12.8 75.08L11.12 74.68L7.84 75.32L6.48 75.08L5.44 73.88L3.84 66.76L4.4 63.24L4.32 61.88L4.56 60.52L4.32 56.68L4.56 52.92L4.24 51.24L4.56 49.48L4.4 46.2L4.64 43.4L4.24 38.36L4.08 35.24L4.4 32.12L4.88 26.92L4.96 25.72L4.08 21.56L4.72 19.96L9.68 19L11.28 19.16L13.12 18.76L14.8 18.92L16.96 19L18.72 19.16L26.96 18.92L28.08 18.52L34.88 19.16L38.16 19.4L39.12 19H40.08L43.28 18.76L45.12 18.92L48.56 19.64L49.44 22.92L49.52 24.28ZM19.04 19.88L18.64 20.68L19.12 21.4L20.4 20.6L19.92 19.8L19.04 19.88ZM22.64 22.2L22.88 22.92L23.2 23.72L22.88 24.68L23.84 25L24.64 24.36L24.96 23L25.28 23.4L25.04 23.88L26.32 24.04L26.4 22.6L26 22.84L26.48 21.8H26.96L27.12 22.2L26.48 22.52L28.24 22.68L27.68 22.04L27.52 21.64L27.92 20.68L27.2 19.8L26.4 21.8L25.68 21.32L24.72 21.72L24.08 21.96L24 22.6L23.6 21.96L24.24 21.8L24.08 21.24L23.2 21.4L23.28 21L22.64 21.64V22.2ZM6.88 22.84V23.32L6.96 23.96L7.92 24.44L7.68 24.04L8.08 23.56L7.92 23.08L8.88 24.12L9.52 23.96L10 23.72L9.44 24.36L9.68 24.92L10.32 25.64L11.2 26.36L11.28 27.32L12.56 27.64L12.8 26.76L12.64 26.04L12.4 26.76L12 26.68L11.36 26.44L10.8 25.48L11.52 24.68L11.12 23.72L9.84 23L10.32 23.08L9.92 22.76L10.08 21.96L10.8 22.2L11.04 23L11.68 22.36L11.2 21.96L11.44 21.24L10.48 20.2L10 20.28L8.96 20.52L8.72 21.24L8.32 21.64L8 22.44L7.76 22.92L6.88 22.84ZM38.32 32.76L39.28 32.68L40.08 32.6L39.92 31.32L39.36 30.76L38.64 30.52L38.8 30.12L38.24 30.44L37.92 29.88L37.84 28.92L37.68 28.44L36.96 28.2L37.84 28.36L38.24 28.2V27.4L38.72 27.16L38.88 27.96L38.4 27.88L38.64 28.52L39.12 28.12L40.08 27L39.92 26.2L40.32 25.8L39.12 26.04L39.04 26.44L38.8 25.72L39.68 25.48L38.48 24.84L38.96 25.08L39.44 24.68L39.84 24.36L38.88 23.56L38.96 22.92L39.44 22.6L39.04 23.32L39.6 23.88L40.08 24.44L40.16 24.28L40.8 24.44L40.64 24.84H41.6L42.24 24.68L41.92 25.32L42.08 26.28L43.04 26.6L44.16 25.88L43.52 26.6L43.92 27.64L45.76 27L45.36 26.04L45.76 26.36L46.48 25.96L46.96 25.48L46.64 24.44L45.68 24.2L45.36 25.48L44.72 25L45.2 24.6L44.56 23.88L43.68 23.96L43.36 24.2L43.2 24.12L42.96 23.08L43.52 22.68L43.36 21.8L42.96 21.64V21.08L42.56 21.48L41.28 21.56L40.8 21.8L40.64 21.4L40.48 20.6L39.6 20.36L40.32 22.12L40.88 22.44L40.56 22.28L40.4 22.68L39.44 22.6L40.24 22.52L38.96 20.68L38.32 21.08L37.6 20.6H36.48L36.24 21.16L36.08 21.96L35.6 22.36L35.68 23L36.16 23.08L35.76 23.16L34.72 23.32L34.64 23.48L34.08 24.2L34.64 23.48L33.28 22.28L32.56 23.08L32.72 23.56L32.16 24.04L32.08 24.6L30.48 25.64L30.72 26.84L30.4 26.28V25.88L30 25.4L30.56 25.48L31.12 24.76L30.96 23.48L30.16 23.32L29.52 24.68L28.48 24.6V25.32L27.92 25.72L28 26.44L27.6 26.04L27.12 25.8L26.72 25.56V25.8L26.88 26.2L26.96 26.36L26.72 26.92V27.56L27.2 27.64L27.68 27.96L28.64 27.48L28.72 26.52L28.64 26.04L29.04 26.12L29.12 26.84L29.68 26.76V27.4L30.32 27.8L31.12 27.56L31.2 27.96L31.76 28.28L32.16 28.68L32.72 29L32.48 29.4V29L31.92 30.12L31.76 29.64L32.16 29.24L31.44 29.08L30.96 29.64L31.04 30.2L31.36 30.76L30.72 31.4L31.52 31.16L32.48 31.96L32 32.68L32.4 33.48L33.68 31.88L32.24 30.76L32.08 30.36H32.56L33.12 30.28L32.48 30.04V29.64L33.68 28.92L33.04 29L33.44 28.76L32.8 28.28V27.88L33.84 27.64L34.56 27.56L34.88 26.92L34.48 26.36L34 26.52L33.6 26.12L34.72 26.04L35.28 26.6L35.92 26.84L36.32 27.32L35.6 27.56L35.2 27.72L35.04 28.84L35.52 28.68L35.12 28.92V29.4L35.52 29.64L36.16 29L36.32 29.56L36.16 30.04L35.6 29.8L35.68 31.24L35.28 32.04L35.84 32.76L37.2 32.2L37.36 32.84L37.52 33.32L37.6 32.92L37.76 33.64L38.64 33.96L39.36 33.24L38 33.56L38.32 32.76ZM33.04 20.36L32.48 20.76H32.88L33.04 20.36ZM30.8 21.32V21.88L30.72 23L31.76 23.08L32.24 22.04H32.72L33.04 21.64L33.84 22.12L34.88 21.56V20.44L34.4 20.76L33.04 21.48L32.8 20.92L32.16 21.88L31.92 21.32H30.8ZM13.52 20.76L11.76 20.44L12.08 21.32L12.96 21.4L13.52 20.76ZM45.44 20.6L44.56 21.24L45.2 21.16L45.44 20.6ZM18.08 21.32L16.8 20.76L17.28 21.4L18.08 21.32ZM15.92 20.84L15.68 22.12L16.32 22.2L16.08 22.76L16.96 23.08L17.36 23.96L18.32 24.04L18.64 22.92L18.48 22.36L17.36 22.44V21.96L16.8 21.64L16.64 21L15.92 20.84ZM28.56 23.24L29.04 23.88L30.32 22.92V22.28L29.92 21.96L30.4 21.24L30.08 21.4L29.44 21.56L29.84 21.96L29.6 22.36L29.36 21.96L28.72 22.04L28.56 23.24ZM13.92 22.2L13.68 21.24L12.96 21.96L13.2 22.92L14.24 23.24L14.16 22.92L14.88 23.64L14.48 21.88L14.4 22.28L13.92 22.2ZM6.56 21.4L5.84 21.48L5.92 22.68L6.64 22.6L6.96 21.96L6.56 21.4ZM20.24 21.48L20.08 21.4L18.88 22.44L20 22.2L20.24 21.48ZM8.64 22.52L8.88 21.48L9.28 21.88L8.64 22.52ZM37.52 22.44L37.44 22.04L36.96 21.88L37.68 21.8L38.56 22.12L38.08 22.28L37.52 22.44ZM22 22.6L21.36 22.36L21.68 21.8L20.56 22.28V22.76L21.12 22.36L20.48 22.84L21.52 22.92H22.08L22 22.6ZM34.72 23.16L34.08 22.6L34.24 23.08L34.72 23.16ZM37.2 23.4L36.56 23L37.52 22.6L38 23.08L37.2 23.4ZM12.72 24.44L13.36 23.64L12.96 22.68L12.72 24.44ZM19.68 24.2L20.24 24.12L20.16 23.24L19.36 22.92L18.64 23.4L18.88 24.36L18.72 24.84L19.12 25.4L19.84 25.24L20.08 24.6L19.68 24.2ZM38.32 23.08L38.88 23.56L38.8 23.88L38.32 23.08ZM26.4 23.32L26.56 23.72L27.12 23.16L26.4 23.32ZM27.44 23.24L26.8 24.12L27.28 25.16L28.4 25.32L28.56 23.4L27.44 23.24ZM22.4 23.88L22.16 23.4L21.52 23.48L21.04 23.56L20.8 24.28L21.84 24.68L22.64 24.44L22.4 23.88ZM16.08 24.52L15.6 24.76L16 25L15.84 25.8L16.16 26.28L16.32 26.04L16.4 25.08L16.56 24.68L17.04 23.88L16.48 24.2L16.56 23.4L16.08 24.52ZM42.8 23.96L43.2 24.12V24.2L42.8 23.96ZM24.16 29.24L24.88 29.32L25.28 28.04L25.52 28.44H26.08L25.76 27.88L26 27.48L25.44 26.84L25.2 26.12L25.92 26.2L26.08 25.48L26.32 24.36L25.28 24.12L24.48 25L24.16 25.8L24.32 26.52L24.72 26.84L24.88 27.48L23.76 27.08L23.52 26.12L22.72 26.36V27.32L22.08 27.88L21.6 27.72L21.76 28.2L21.28 28.84L21.12 29.48L21.6 29.64L21.52 30.2L22.16 29.8L22.32 29.32L23.12 29.56L23.36 28.6L22.48 27.72L23.68 28.04L24.16 29.24ZM16.88 25.72L17.6 25.32L17.84 25.8L18.96 25.88L17.84 25.08L18.24 24.68L17.52 25L16.88 25.72ZM37.04 25.96L36.4 26.04L36.48 25.24L36.96 25.16L36.88 24.76L37.12 25.4L36.72 25.56L37.04 25.96ZM7.92 26.12L8.8 24.92L8.08 24.84L7.6 25.48L7.92 26.12ZM32.56 25.4V25.8L33.04 26.2L32.8 27.4L32.48 27L32.08 27.08L31.68 26.92L31.44 25.96L30.96 25.8L31.76 25.64L31.84 25.24L32.56 25.4ZM12.4 25.32L11.6 26.04L12.16 25.96L12.4 25.32ZM11.92 25.32L11.28 25.88L11.76 25.72L11.92 25.32ZM19.04 27.4H19.52L20.48 27.64L21.12 27L21.76 27.08L22.32 26.28L21.84 25.4L21.12 26.52L20.96 25.96L20 25.64L19.84 26.04L19.28 25.8L18.64 26.28L19.6 26.76L19.2 26.92L19.04 27.4ZM15.52 26.52V27.4L16.08 27.64L17.36 28.76L17.76 29V29.56L18.88 30.44L19.04 30.6L20.16 31.24L20.64 32.04L21.2 31.16L20.64 30.28L20 30.04L20.72 29.72L20.48 29.08L20.88 28.6L20.64 27.88L19.12 29.72L19.52 28.92L18.4 28.36L18.16 27.88L17.36 27.72L17.04 27.32L17.36 26.84L17.52 26.36L17.12 25.88L16.56 26.04L16.4 26.6L17.2 26.84L16.08 27.32L15.52 26.52ZM10.48 26.84L10.8 26.44L10.64 25.96L10.48 26.84ZM47.76 32.12L48.48 31.8L47.76 30.76L48.24 29.72L47.76 28.84L46.16 28.44L45.68 28.28L44.88 27.56L44.48 27.96L43.76 28.12L43.92 28.52L42.88 28.2L42 26.36L41.44 26.6L41.36 26.04L40.24 27L41.04 27.96V28.36L40.32 28.12L39.84 28.68L40.08 30.2L39.84 31.08L40.4 31.16L41.28 31.4L42 32.04L42.16 31.16L42.08 32.04L42.88 31.64L43.68 30.76L44.16 31.24V31.8L44.8 31.32L45.52 31.08L46.24 31L46.32 30.36L46.4 31.72L45.68 32.04L45.36 31.48L44.96 31.64L45.2 32.36L44.8 33.24L46.8 33.88V32.92L47.6 32.76L47.76 32.12ZM9.6 26.44L9.68 26.04L9.2 26.6L9.6 26.44ZM47.2 27.08L47.44 26.28L46.8 26.76L46.08 26.84L46.8 27.16L47.2 27.08ZM14 27.64L14.4 27.24L14.24 26.68L14 27.64ZM8.72 28.04L7.92 27.32L6.88 27.64L7.44 29.48L8.48 29.16L8.72 28.04ZM48 27.96L47.68 27.32H46.96L46.72 27.96L47.68 28.52L48 27.96ZM29.36 28.28L30.4 28.36L28.96 27.32L29.36 28.28ZM12 28.36L11.92 27.8L11.44 27.64L11.28 27.96L11.6 28.52L12 28.36ZM15.36 29.32L15.28 28.68L14.88 28.6L14.4 27.72L13.76 28.76L13.36 29.4H14.24L14.96 30.28L15.36 29.32ZM19.36 27.88L18.72 28.2L19.12 28.28L19.36 27.88ZM25.84 28.92H26.32L26.56 28.52L26.32 28.04L25.84 28.92ZM10.64 28.2L10.16 28.12V29L10.88 30.68L11.52 29.88L11.12 28.92L10.8 28.68L10.64 28.2ZM27.04 30.52L27.44 29.48L28 29.08L28.32 29.48L28.24 29.96L27.84 30.12H28.4L29.04 29.96L29.36 28.92L28.96 28.28H28.24L27.84 28.44H27.2L26.88 29V29.4L26.64 30.04L27.04 30.52ZM11.68 30.28L13.12 29.8L12.56 28.92L12.4 28.52L11.44 29.48L11.68 30.28ZM43.76 28.92L43.92 28.84L44.32 28.92L44.4 29.32L45.44 29.56L46.08 29.16L45.28 29.8L44.32 29.48L44.16 29.08L43.76 28.92ZM17.68 29.96V29.32L17.2 28.92L17.68 29.96ZM30.16 29H29.36L29.6 29.4H30L30.16 29ZM24.24 31.24L24.64 31.48L24.88 30.52L25.2 29.64L24.24 29.32L23.44 29.96L23.6 31L24.24 31.24ZM33.92 30.44L34.16 29.48L33.04 31L33.36 30.6L33.92 30.44ZM5.76 32.04L6.32 32.2L5.6 32.28L5.84 33.8L6.72 33.64L7.52 33.88H8.48V34.52L9.04 33.56L8.48 32.6L8.16 33.16L8.64 31.72L7.6 31.4L7.76 30.76L8.48 31.24V30.28L7.68 29.72L7.04 29.96L6 30.2L7.04 30.6L5.76 32.04ZM28.24 30.52L28.88 31.48V31.88L29.6 31.72L29.04 31.56L29.28 30.92L29.6 31.56L31.12 30.84L30.32 29.8L29.76 30.04L29.28 30.92L28.88 30.44L28.24 30.52ZM17.76 30.52L18.72 31.08L18.08 29.96L17.76 30.52ZM17.52 30.44L17.2 30.04L16.64 30.36L15.92 30.2L15.28 31L15.6 31.88L17.36 31L17.52 30.44ZM13.36 31.4V30.12L12.96 30.76L13.36 31.4ZM22.48 31.64L23.12 32.04L23.2 30.44L22.48 30.84V31.64ZM21.2 30.84L22.08 31.48L22.16 30.92L21.68 30.6L21.2 30.84ZM36.72 30.68L37.04 31.8L36.56 31.16L36.72 30.68ZM14.32 31.24L14.48 31.72L15.04 30.92L14.32 31.24ZM12.64 32.28L12.56 31.8L12.96 31.16H12.24L11.36 30.92L10.64 31.64L11.84 32.92L12.64 32.28ZM10.8 31L9.36 31.24L9.84 31.8L10.24 31.72L10.08 32.12L10.48 31.72L10.8 31ZM24.8 32.52L25.68 33.24L24.96 31.4L24.8 32.52ZM28 32.92L28.8 33.32L28.72 31.56L28 32.28L27.6 32.84L28 32.92ZM10.96 35.08L10.4 35.72L10.72 36.6L11.68 36.76L11.92 35.16L12.48 35L13.28 33.48L13.36 31.56L12.72 32.52L13.04 33.08L12.16 33.24L11.76 34.2L12.4 34.92L11.6 34.68L10.96 35.08ZM18.64 32.6L17.6 31.8L17.52 32.44L18 32.84L18.64 32.6ZM38.24 31.96L38 32.2H37.6L38.24 31.96ZM19.04 32.36L18.88 32.6L18.96 33.56L18.64 35.08L18 35.72L18.72 36.36L19.6 36.12V34.68L19.44 34.28L19.92 33.56L19.36 33.32V32.6L19.84 32.68L19.04 32.36ZM36.16 33.8H37.04L36.64 33.56V32.44L35.52 33L34.64 33.56L35.6 34.12L36.16 33.8ZM30.72 33.32L31.36 32.92L29.2 32.44L29.52 32.92L29.68 33.48L30.08 32.92L30.72 33.32ZM26.32 33.64L26.88 33.24L26.8 32.52L25.6 33.4L26.32 33.64ZM41.44 33.56L41.68 32.76L41.28 32.84L41.44 33.56ZM10.32 33.32L9.68 32.84L9.92 33.48L10.32 33.32ZM14.48 33.72L13.92 33.48L13.52 33.08L13.04 34.92L14.08 34.6L13.92 35.08L13.52 35.24L13.68 35.64L13.92 36.28L15.04 36.44L15.76 35.64V34.84L15.6 33.88L14.56 34.12L14.48 33.72ZM15.84 33.08L17.12 34.28L18 34.76L18.24 34.28L17.92 33.8L17.28 33.88L16.88 33.08H15.84ZM11.76 33.56L11.36 34.2L11.76 33.96V33.56ZM5.76 33.64L5.44 34.6L6.08 35.48L5.76 33.64ZM6.16 34.36L6.96 34.04L6.48 33.96L6.16 34.36ZM7.2 34.6L8.24 34.36L7.84 33.96L7.36 34.04L7.2 34.6ZM21.76 34.04L20.8 35.4L21.6 35.48L22.08 34.84L21.76 34.04ZM12.48 35.8L12.96 36.44L12.8 35.08L12.48 35.8ZM20.32 36.12L20.64 35.72L20.4 35.32L19.92 35.24L19.84 36.04L20.32 36.12ZM17.04 35.4L15.76 37.08L16.8 37.24L17.44 36.36L17.04 35.4ZM7.28 37.24L6.48 36.76L6.56 38.68L7.36 38.2L7.28 37.24ZM13.04 37.56V36.92L12.4 37.96L11.76 38.04L11.84 39.56L12.72 39.48L13.12 38.68L12.88 37.96L13.36 38.36L13.2 39L14.24 40.2L13.6 39.96L12.72 40.68L13.12 40.6L13.36 41.08V40.52L13.76 40.76L13.92 41.16L13.44 41.56L14.32 41.88L14.8 41.48L15.68 42.2L15.92 42.84L17.2 43L17.76 42.84L17.04 41.56L17.44 40.76L18.08 40.28L18 39.56L17.12 40.12V40.52L16.48 41.08L16.32 40.12L16.64 39.48L15.6 38.36L15.2 38.04H14.24L14 37.4L13.04 37.56ZM17.2 37.4L18.48 38.92L18.24 37.8L17.2 37.4ZM21.28 37.4H20.24L20.8 37.72L19.92 37.88L21.44 38.44L20.96 37.8L21.84 38.36L21.28 37.4ZM8.48 38.12L8.96 38.04L8.16 37.72L8.48 38.12ZM18.96 38.68H20.4L20 38.04L19.28 38.12L18.96 38.68ZM10.4 39.88L10.24 40.44L11.36 40.28L11.84 40.68L11.28 39.16L11.76 39L11.2 38.92L10.48 38.84L11.12 39.24L10.96 39.72L10.4 39.88ZM9.52 39.72L8.56 39.64L9.04 40.04L8.64 39.88L8.24 40.92L8.88 41.16L9.36 40.76L9.04 40.04L9.52 39.8L9.76 40.68L10.24 39L9.52 39.72ZM18.64 39.64H18.24V40.36H18.64V39.64ZM6.24 40.04L5.92 40.52L6.16 41L6.72 41.08L6.8 40.12L6.24 40.04ZM8.48 43.32L9.68 44.68L10.4 43.72L11.44 43.64L11.92 44.28L12.16 43.8L11.84 43.4L12.16 42.68L12.96 43.24H14L12.88 41.48L12.4 41.96L12.24 42.36L11.76 42.68L11.12 42.2L10.56 41.72L9.84 41.96L9.76 42.68L10.08 42.92L9.28 42.6L8.48 43.32ZM41.6 41.96L40.88 42.6L41.92 44.2L42.48 43.32L44.08 43.16L43.2 42.76L42.72 43.16L42.48 42.28L41.6 41.96ZM15.28 43.32L15.76 43.8L16.32 43.72L15.52 42.76L15.28 43.32ZM6.72 44.44L7.44 44.6L7.84 44.04L7.68 43.4L7.2 43.88L6.8 43.96L6.72 44.44ZM12.72 47L13.12 47.16L13.68 47.24L14.32 47.4L14.48 46.84L15.12 46.52L15.76 46.68L16.32 45.72L16.64 45.16L16.4 44.68L16.32 44.6L15.28 44.76L14.88 44.68V44.2L14.08 44.52L14.56 44.12L12.64 43.4L12.56 44.6L11.76 44.44L10.96 45.24L11.28 46.28L12.4 46.36L12.72 47ZM23.28 45.4L22.64 43.72L22 44.52L22.32 45.32L21.92 45.64L22 46.04L21.2 46.68L21.44 45.96L20.88 45.24L20.32 46.68V47.72L21.12 48.28L20.88 49.72L21.44 49L21.2 48.28V47.08L21.84 47.16L22.24 46.6L22.88 46.84L23.28 45.4ZM24.08 43.96L23.28 44.76L24.88 45.16L24.8 45.64L24.72 46.2L25.6 46.36L26.24 45.64L26 44.76L25.12 44.28L24.08 43.96ZM42.8 44.52L44.64 44.36L43.68 43.96L42.8 44.52ZM33.44 44.04L32.4 44.44L34.32 44.76L33.44 44.04ZM17.44 45.24L19.2 44.44L18.08 44.28L17.44 45.24ZM26.24 44.6L26.16 45.32L26.8 45.72L27.44 45.4L26.88 44.28L26.24 44.6ZM39.6 44.52L38.96 44.76L39.04 45.72L39.44 46.76L40.88 46.12L41.44 46.04L41.68 45.48L40.8 44.92L39.6 44.52ZM7.12 44.6L6.64 45.16L6.88 45.96L8.16 45.48L7.92 44.76L7.12 44.6ZM12.96 45.96L13.2 46.84L12.48 46.36L12.8 44.76L13.68 45.4L12.96 45.96ZM35.12 45.32L34.56 44.76L33.76 45L33.6 45.8L34.16 46.36L35.12 45.32ZM9.36 45.4L9.28 45L8.88 44.92L9.36 45.4ZM36.8 45.56L36.24 46.36L36.32 45.96L35.76 46.52H36.96L36.56 46.84L36.72 47.4L37.2 47.64V46.04H37.92L38.72 45.8L38.88 45L37.6 45.64L36.8 45.56ZM27.68 45.08V45.48L27.12 45.88L27.2 46.76V47.24L28.16 46.04L27.68 45.08ZM7.84 46.28L7.28 47L7.76 47.48L8.32 47.56L8.64 47.08L8.24 46.2L8.4 45.64L7.84 46.28ZM32.16 46.52L31.52 46.2L31.6 47.8L32.32 47.32L32.24 46.76L32.72 46.6L32.96 45.64L32.16 46.52ZM44.88 47.16L44.8 46.28L44 45.96L43.28 46.44L43.92 47.32L43.28 47.24L43.04 48.2L43.6 48.84V49.24L43.68 49.8L44.24 50.04L44.72 49.16L44.48 48.36H44.88L45.52 47.48L44.88 47.16ZM10.32 47.24L11.28 47.48L10.88 46.52L10.72 46.12L9.92 46.04V46.76L9.44 46.92L10.32 47.24ZM38.24 53.24L38.8 52.04L39.36 52.2L39.84 51.8H40.32L40.4 51.24L41.2 51.56L42.08 51.64L41.6 50.68L40.32 50.44V50.04L41.12 49.72L41.28 50.2L42.48 49.72L41.12 49.24V48.6L40.56 48.28L41.04 48.2L41.36 47.24L40.72 46.44L40.16 48.36L39.6 49.4L39.2 49.48V49.88L38.88 50.12L38.32 50.04L38.16 50.92V51.88L38.8 52.04L38.24 52.52V53.24ZM24 46.84L24.8 47.08L25.68 47.56L25.36 47.08H24.96L24.56 46.68L24 46.84ZM12.48 48.76L13.12 47.88L12.64 47L11.6 46.92L11.44 48.76H12.48ZM18.24 48.12L19.68 47.4L18.96 46.92L18.24 47.32V48.12ZM5.92 48.36L6.64 48.2L6.88 47.56L6.32 47L5.68 47.16L5.92 48.36ZM38 47.88L38.48 48.12L38.72 47.56L38.4 47L37.36 47.24L37.12 48.2L37.68 48.28L38 47.88ZM26.16 47.88L26.48 47.24L25.52 47.88H26.16ZM25.6 49.24L25.76 48.68L25.2 48.28L24.8 47.48L23.84 47.32L24 48.12L23.52 48.28L23.28 48.76L23.68 49.24L24.4 48.6L24.48 49L24.96 49.48L25.6 49.24ZM21.52 48.44L22.8 47.8L22.16 47.4L21.52 47.72V48.44ZM10.88 47.48L10.4 47.56L10.24 48.04L10.88 47.48ZM7.84 48.36L8.24 48.6L8.72 48.44V47.96L8.16 47.88L7.6 47.64L7.84 48.36ZM36.24 47.72H35.2L36.16 49.56L36.64 48.44L37.04 49L37.84 48.92L36.56 48.36L36.24 47.72ZM28.96 48.12L28.48 47.72L28.8 48.76L28.96 48.12ZM32.08 48.04L31.52 48.68L32 48.52L32.08 48.04ZM28.72 48.84L28.4 48.28H27.76L27.44 48.84H28.72ZM7.52 50.04L8.24 50.44L8.96 50.04L8.72 49L8.08 48.84L7.52 50.04ZM6.88 48.92L5.44 49.24L6 49.8L6.64 49.64L6.88 48.92ZM11.52 50.68H12.4L12.96 51L12.88 48.92L12.32 49.24L11.6 49.16L11.44 49.72L10.96 49.64L11.52 50.2V50.68ZM24 49.56L24.08 48.92L23.36 49.64L23.04 50.28L22.16 50.68L23.12 51.32L23.76 51.24L23.92 50.68L24.64 50.2L24 49.56ZM31.68 48.92L30.08 49.88L30.88 50.36L31.68 49.88V48.92ZM9.2 49.96L9.68 50.6L10.24 50.52H10.48L10.8 49.72L9.52 49.24L9.2 49.96ZM13.68 49.24L13.44 49.64L13.68 50.04L14.4 49.64L14.16 49.24H13.68ZM17.28 49.4L16.72 49.32L16.4 49.72L16.56 50.28L17.12 50.36L17.28 49.4ZM7.04 50.92L6.72 50.04L5.76 49.88L5.52 50.76V51.56L6.4 51.64L7.04 50.92ZM33.6 50.36L33.76 50.92L34 49.96L33.6 50.36ZM36.16 50.84L36.64 51L36.96 50.6L36.8 50.2L36.32 50.04L36.16 50.84ZM46 52.28L45.44 51.64L45.2 51.4L44.88 51.16L43.92 50.36L42.96 50.6L42.64 51.56L42.56 52.2L42.88 52.84L42.96 53.56L43.52 53.8L43.04 53.96L42.88 54.44L43.28 54.84L43.6 53.88L43.68 54.68L43.92 54.92L44.4 54.52L44.32 53.72L43.76 53.56L44.64 52.76L45.44 52.36L45.52 52.84L45.92 53L46.32 52.68L46 52.28ZM30.08 51.88L30.48 51.48L30.24 50.36L28.64 51.88L30.08 52.28V51.88ZM24.64 51.56L25.84 51.32L25.44 50.84L24.8 51L24.64 51.56ZM30.32 53.72L30.8 54.44L30.4 55.08H32L31.6 54.44L32.56 54.28L32.96 53.24L32.56 52.68L32.96 52.6L33.12 51.72L32.16 51.24L31.28 51L30.56 51.72L31.84 52.12L32.08 52.84L31.44 54.44L30.88 54.36L31.68 52.76L30.72 52.84L30.32 53.72ZM38.16 52.36V51.96L37.44 52.2L36.72 51.64L36.56 52.68L36.48 53.4L37.28 53.08L37.44 52.44L38.16 52.36ZM21.76 52.12L20.16 52.28L20.64 52.92L21.44 52.84L21.76 52.12ZM15.52 52.92L16 52.28L15.36 52.52L15.52 52.92ZM16.56 52.52L16.32 53.32L17.44 52.28L16.56 52.52ZM5.6 52.76L5.52 53.48L6.08 53.88L6.72 53.64L6.24 52.44L5.6 52.76ZM33.92 53.48L34.88 52.68L34.24 52.44L33.76 52.84L33.92 53.48ZM24 53.56L24.24 52.6L23.04 53.88L24 53.56ZM38.72 53.4L39.84 53.24L39.44 52.84H38.96L38.72 53.4ZM28.48 54.68L29.28 55.08L30 54.52L29.52 53.08L28.96 53.4L28.4 53.88L28.48 54.68ZM45.92 54.68L46.72 53.96L44.64 53.24L44.8 54.36L45.92 54.68ZM27.36 53.4L27.92 53.64L28.32 53.24L27.36 53.4ZM40.96 54.12L41.52 54.2L41.6 53.32L41.2 53.4L40.8 53.56L40.96 54.12ZM34.8 53.96L34.72 53.56L34.32 53.4L34.08 54.04L34.8 53.96ZM23.52 55.08L23.76 54.68L23.52 54.28H23.04L22.32 53.88H21.28L20.88 53.48L20 53.72L21.12 53.96L20.72 54.36L20.96 55.32L21.52 55.08L22.24 55.56L22.8 55.4L22.64 55L23.04 54.44V55.08H23.52ZM11.2 54.76L10.16 56.04L11.36 55.88L11.52 56.52L12.64 56.76L13.36 55.96L13.04 54.84L12.64 54.68L12.08 55.16L11.68 55.32L11.36 54.68L12.32 54.12L11.6 53.72L10.96 54.12L11.2 54.76ZM32.96 55.08L33.52 54.76L33.44 54.12L32.88 53.8L32.4 54.76L32.96 55.08ZM15.92 53.96H15.12L14.72 54.6L15.92 53.96ZM37.68 55.96L38.16 55.24L36.8 54.52L36.56 55L36.16 54.76V55.72L36.96 56.2L37.68 55.96ZM43.6 56.28H44.08L44.64 55.48L43.6 55.4L43.28 55.16L42.96 54.6L42.32 54.52L42 55.4L41.76 56.28L42.96 56.04L43.12 56.68L43.6 56.28ZM20.4 55.48L19.36 55.08L19.2 55.72L19.6 56.36H20.16L20.88 56.76L21.12 56.12L20.16 56.2L20.4 55.48ZM28.16 56.12L29.04 56.04L27.68 55.32L28.16 56.12ZM32.96 55.96L32.88 55.88L32.56 55.48L31.6 56.36L32.08 56.92L32.8 56.76L32.96 55.96ZM19.12 56.28V55.88L18.72 55.56L18.32 55.72L18.64 56.52L19.12 56.28ZM7.68 57.48L7.12 56.6L7.92 55.8L6.8 56.12L6.88 56.92L6 58.44L7.2 59.48L6.24 59.56L6.32 60.36L7.12 60.68L7.68 60.2L7.36 59.4L7.12 58.44L7.68 57.48ZM16.4 58.92L15.84 60.52L16.72 60.36L16.96 59.48L16.4 58.84V58.36L16.72 57.8L17.44 58.36L18.24 58.2L17.84 56.6L16.56 56.84L16.08 56.76L15.6 56.12L14.48 56.44L13.68 56.2L13.04 57L13.36 57.96L14.48 57.64L14.72 58.04L16.16 56.92L16.64 57.32L15.28 58.28V58.92L15.84 59.24L16.4 58.92ZM8.8 57.24L8.24 57.8L8.48 58.44L9.12 58.68L9.52 57.48L8.8 57.24ZM10.72 58.36L10.56 58.92L11.04 59.32L11.52 59.16L11.84 58.76H11.44L11.28 58.2L10.72 58.36ZM14.88 60.44L15.2 59.96L14.72 58.92L14.16 59.48L14 58.52L13.52 58.92L13.6 59.48L14.16 59.72L13.76 60.28L13.92 59.88L13.36 59.32L13.2 59.8L12.72 59.16L11.92 59.64L12 60.36L10.96 59.96L10.72 60.6L10.96 62.28L10.32 62.52L10.16 63.24L11.44 63.16L11.92 63L12.08 63.56L12.88 63.24L13.52 63L13.68 62.12V61.4L12.96 61.16L12.56 62.04L12.88 61.08L13.68 60.76L14.56 61.88L14.88 60.44ZM20.72 59.48L21.2 58.76L19.44 58.68L19.84 59.4L20.72 59.48ZM17.52 59.56L18 59.32L18.08 58.84L17.52 59.56ZM21.28 60.92L22 61.24L22.8 60.68L22.72 59.64L21.76 59.16L21.36 60.12L21.12 59.48L19.44 59.96L19.76 61L20.4 61.32L21.12 61.88L21.6 62.68L21.52 63.72H22.16L22.48 63.08L22.16 62.52L21.76 61.72L21.28 60.92ZM8.32 67.48V66.36L6.96 66.44L7.12 66.04L6.96 64.44L7.44 64.76L7.84 64.12L8.16 65.32L8.72 64.76L9.76 64.84L9.92 65.24V64.6L9.6 64.28L10.08 63.88L9.28 63.56L10.16 62.12L9.76 61.8L9.28 61.32L9.36 61.16H10.24L10.72 60.44L10.32 59.64L9.6 60.04L8.96 60.36L8.16 60.12L7.68 61.64L8.72 61.8L8.96 62.44L8.56 62.92L8.88 63.56L9.12 64.2L8.72 64.44L8.56 63.88L7.44 63.64L6.96 63.88V64.44L6.08 63.16L5.2 63.72L5.28 64.76L5.36 65L6.08 65.48L6.64 65.64L6.72 66.44L6.32 66.52L6.4 67.64L7.44 68.12L8.32 67.48ZM17.44 59.96L17.12 60.52L18.24 61.08L17.44 59.96ZM16.16 60.52L15.44 61.16L15.68 62.12L17.04 60.76L16.16 60.52ZM19.36 61.24V60.84L18.96 60.6V61.4L19.36 61.24ZM19.92 62.04L19.84 61.64L19.2 61.8L19.6 62.28L19.04 62.92L19.52 63L19.76 63.72L20.72 63.96L20 63.08L20.24 62.92V62.76L19.92 62.04ZM17.52 63.64L18.08 64.36L19.04 64.2L19.36 63.32L18.24 62.68L18.4 61.88L16.88 62.52L17.76 62.92L17.52 63.64ZM13.2 64.12L13.92 64.04L12.8 63.48L13.2 64.12ZM10.88 64.92H11.84L11.6 64.52H11.12L10.88 64.92ZM22.96 67.08L23.6 67.4L23.44 66.28L22.88 66.04L23.2 65.64L22.96 65L22.4 65.64L22 65.4L21.52 66.52L21.92 66.76L21.12 67.48L21.28 68.6L22.96 67.08ZM15.2 66.6L16.16 67.24L17.2 65.56L16.24 65L15.2 65.48V66.6ZM20.08 65.72L20.72 65.24L19.44 65.32L18.96 65L18.48 65.16L18.32 65.64L18.24 66.84L18.96 66.92L19.36 66.28L19.04 65.8L19.44 65.32L20.08 65.72ZM8.24 65.72L8.48 67.16L8.8 66.36L8.24 65.72ZM20.48 66.36L20.24 65.96V66.76L20.48 66.36ZM14.4 66.52L14.32 67.16L14.88 67.56L15.44 67.32L14.4 66.52ZM10.64 67.72L12.16 68.68L12.72 67.8L12.24 66.92L11.2 66.84L10.64 67.72ZM16.4 67.16L17.2 67.32L17.04 66.92L16.4 67.16ZM16 68.84L16.16 68.28L15.6 67.88L16.08 67.32L15.36 67.96L14.64 67.72L14.72 68.2L15.28 68.28L15.44 68.92L16 68.84ZM13.6 68.36L13.84 67.96L13.68 67.56L13.28 68.04L12.96 67.64L13.04 68.36H13.6ZM10.8 70.12L10.56 69.64L10 69.16L10.48 69.72L9.76 70.28L10.32 70.52L10.8 70.12ZM9.04 69.24L8.56 69.72L9.76 70.12L9.6 69.48L9.04 69.24ZM19.52 69.72L19.28 69.32H18.88L19.44 69.64L19.2 70.2L19.52 69.72ZM12.48 70.2L12.88 70.44L13.28 70.2L12.88 69.48L12.48 69.72V70.2ZM16.96 69.64L16.56 71.16L17.36 70.92L17.52 70.2L16.96 69.64ZM11.6 71L11.92 70.6L11.68 70.04L11.6 71ZM18.16 70.12L17.76 70.84V71.8H18.32L18.48 71.08L18.16 70.12ZM15.76 71.4L16.16 71.16L15.84 70.44L15.36 71.16L15.76 71.4ZM21.12 73L21.76 72.2L21.04 71.4L19.76 71.8L20.08 72.76L21.12 73ZM21.92 72.04L22.4 72.2L21.84 71.64L21.92 72.04ZM16.88 72.76L17.6 73.4L17.2 71.8L16.88 72.76ZM92.3588 37.56L92.2788 38.76L90.9988 44.92L91.3988 46.52L91.5588 47.8L91.7988 49.16V50.6L91.9588 52.76L91.7188 54.28L92.1187 55.64L91.4788 58.68L91.7188 60.36L92.0388 63.48L91.7988 64.84V67.64L91.7188 71.24L91.4788 74.84L90.3588 75.16L86.8388 75H82.9988L81.3988 75.4L80.3588 74.92L77.0788 75.24L75.4788 74.92L73.7188 74.84L72.5988 73.8L72.0388 72.2L71.9588 69.8L71.5588 65.64L71.7188 63.72L71.8788 58.52L72.0388 57.08L71.7188 54.36V51.64L71.6388 50.36L71.7188 48.28L71.7988 45.16L71.9588 42.2V40.68L69.5588 42.04L68.5188 42.76L66.1188 44.28L63.9588 47.08L62.6788 47.8L59.4788 46.44L54.4388 39.88L53.6388 38.6L52.9188 37.64L53.3988 34.68L57.0788 31.24L58.5188 30.76L61.0788 28.92L62.7588 27.16L66.6788 24.2L69.2388 22.04L70.5988 21.72L73.2388 19.56L74.5188 19L75.7988 18.36L77.3988 18.6L80.5988 19L82.1188 19.32L84.7588 19L86.1988 18.6L88.0388 19L91.3988 20.28L92.1187 22.92L92.1988 24.28L91.3188 27.08L91.4788 30.12L92.0388 32.12L91.7988 33.96L92.3588 37.56ZM75.8788 19.4L75.2387 20.04L75.4788 20.84L75.8788 19.4ZM76.9188 20.04L76.1988 20.68L75.7188 21L75.7988 21.64L76.8388 21.48L77.2388 21.96L78.0388 21.32L77.8788 20.36L76.9188 20.04ZM82.9988 20.52L83.5588 21.72L84.1988 22.36L84.8388 21.64L84.5188 20.84L83.4788 20.92L82.9988 20.52ZM80.7588 20.68L80.1188 20.52L80.1988 21.8L80.9988 21.88L81.5588 21.24L81.2388 20.52L80.8388 21.08L80.7588 20.68ZM78.1988 20.68L78.1188 21.4L77.9588 21.88L77.3188 22.12L78.4388 23.08L77.7188 23.24L78.9988 24.68L79.3188 23.8L78.9988 23.08L79.8788 22.44L79.7988 22.92L80.1988 23.32L80.7588 23.08L79.9588 22.52L80.3588 22.6L79.3988 21.32L79.6388 20.84L78.6788 20.6L78.1988 20.68ZM73.0788 20.6L72.7588 21.48L73.2388 22.36L73.7188 22.44L74.1188 22.6L74.5988 22.68L74.5188 21.64H75.3188L73.7988 21.48L73.0788 20.6ZM87.7988 20.84L87.5588 21.64L88.1988 22.2L87.7988 20.84ZM87.4788 21.24L87.2388 21.8L87.5588 22.28L87.4788 21.24ZM82.8388 21.96L82.3588 22.92L83.2388 24.28L83.7188 24.12L83.7988 23.88L84.4388 23.4V22.6L83.6388 23.16L82.8388 21.96ZM90.3588 22.04L89.5588 22.12L90.5188 23.48L90.8388 22.76L90.3588 22.04ZM75.8788 22.84L74.8388 22.2L74.6788 22.84L74.5988 23.4L75.0788 23.8L75.8788 22.84ZM86.4388 22.92L85.8788 23.56L86.5188 24.52V25.4L87.6388 26.2L87.0788 26.68L87.5588 27.16L88.5188 26.6L88.3588 26.36L87.7988 25.64L88.1988 25.4V24.44H87.0788L87.3988 23.72L87.6388 22.92L86.9988 22.28L86.8388 23L86.4388 22.92ZM71.7988 23L71.3988 23.72L71.8788 24.52L71.7988 23ZM69.5588 23.4L68.6788 24.04L68.8388 25.16L69.5588 23.4ZM76.1188 24.52L76.4388 24.12L75.7188 23.64L75.4788 24.04L75.6388 24.52H76.1188ZM89.0788 23.88L87.6388 24.28L88.9188 24.2V24.84L90.2788 23.96L89.7988 23.64L89.0788 23.88ZM76.5188 24.12L76.7588 25.16L77.3988 25L77.5588 24.36L77.1588 23.96L76.5188 24.12ZM81.8788 24.36L80.8388 24.44L81.3188 24.76L81.4788 25.64L82.8388 24.52L81.8788 24.36ZM83.5588 24.6L84.3588 25.8L84.2788 25L83.5588 24.6ZM82.9188 25.4L83.5588 24.84L82.8388 25L82.9188 25.4ZM76.4388 26.84L76.2788 27.48L76.5188 28.2L76.2788 29L76.0388 29.48L75.6388 29.8L76.0388 31L77.2388 30.92L77.6388 31V31.4L77.3988 32.44L76.5188 32.04L76.5988 33.4L77.3188 33.72H77.4788V33.8L77.7188 33.88L78.1988 33.56L78.0388 32.76L77.5588 32.68L78.2788 32.36L78.4388 31.8L79.4788 32.52L80.2788 32.68L80.8388 32.12L79.5588 31.8L80.0388 31.48V30.44L80.8388 30.6L81.3188 31.08L81.7988 30.2L81.8788 30.6L82.4388 30.36L83.3988 29.56L82.9988 30.04L83.3188 31L84.0388 31.48L84.9188 32.04L86.2788 32.12L86.7588 32.36L87.4788 31.72L87.7188 31.08H86.8388L88.2788 30.2L88.6788 29.64V28.92L88.2788 28.84L87.4788 28.28L87.0788 28.76L86.9988 29.4L86.5988 29.64L86.4388 30.36L86.3588 31.24L85.7988 31.32L86.0388 30.52L85.4788 30.92L85.3188 30.04L86.0388 29.8L85.3988 29.24L84.6788 29.72L84.1188 29.88L83.9588 30.28L83.8788 29.32L83.9588 28.68L84.4388 28.52L84.5188 28.04L83.8788 27.96L84.0388 27.56L84.4388 27.24L84.1988 26.6L83.3188 27.24L82.8388 27.8L83.6388 27.88L83.5588 28.36L83.9588 28.68L83.2388 29.56L82.6788 29.48L82.5188 28.76L81.7188 28.44L82.8388 28.04L82.1188 27.4L81.2388 27.72L80.9988 28.68L81.4788 28.52L81.3988 29.88L80.5188 28.52L79.5588 29.08V30.12L79.0788 29.8V31.64L78.5988 31.08L78.5188 30.04L77.6388 29.56L77.5588 30.28L77.3988 29.48L76.9188 29.24L77.6388 28.76L77.3988 28.28L78.4388 28.04L77.5588 27.16L78.2788 27L78.9188 25.88H79.3188L79.6388 25.4L79.7988 25.64L80.3588 26.28L79.7188 25.16L79.0788 25.24L77.2388 25.88L77.7188 26.36L77.0788 26.68L76.4388 26.84ZM86.4388 25.24L85.8788 25.4L85.7988 25.96L86.1988 26.36L86.4388 25.24ZM85.7988 25.24L84.9188 26.36L85.6388 26.04L85.7988 25.24ZM75.3188 25.4L73.7988 25.32L74.5988 25.8L75.3188 25.4ZM89.5588 25.4L90.2788 26.28L90.1988 25.64L89.5588 25.4ZM68.9188 25.96L69.9588 25.56L69.3188 25.48L68.9188 25.96ZM82.9188 26.84L82.4388 25.48L82.2788 26.28L82.9188 26.84ZM73.3988 26.04L72.3588 25.72L71.6388 26.52L71.9588 27.48L72.9188 27.72L73.2388 26.68L73.3988 26.04ZM70.7588 25.72L69.9588 25.8L69.5588 26.6L70.1188 27.32L71.3188 26.44L71.1588 25.72H70.7588ZM85.4788 28.36L85.2388 27.96V28.44L85.4788 28.36L86.5988 28.6L87.3188 27.8L86.9988 26.68L85.9588 26.44L85.4788 28.36ZM77.0788 26.68L77.5588 27.16H77.4788L77.0788 26.68ZM89.7188 26.92L88.3588 28.44L89.8788 28.68L90.0388 27.96L89.7188 26.92ZM73.1588 27.16L73.2388 27.56L73.4788 27L73.1588 27.16ZM74.7588 27.64L75.2387 27.72L74.5988 27.24L74.7588 27.64ZM66.9988 27.24L65.0788 27.48L65.9588 27.88L65.3188 28.44L66.9988 29L66.8388 28.2L66.1188 27.88L66.9988 27.24ZM83.3188 28.44L82.8388 28.28L82.5988 29.08L83.3988 28.92L83.3188 28.44ZM78.9988 29.16L78.8388 28.52L78.1988 28.36L77.7188 28.84L78.9988 29.16ZM72.9188 29.96L72.5988 29.08L71.6388 28.92L71.0788 29.64L72.9188 29.96ZM64.5188 29.16L63.1588 28.92L63.7188 29.4L64.5188 29.16ZM75.0788 30.36L74.6788 29.64L74.2788 29.88V30.36L74.6788 30.6L75.0788 30.36ZM68.2788 31.24L69.1588 31.48L69.7988 30.76L69.5588 29.8L68.5988 29.64L68.2788 31.24ZM62.1188 30.04L61.5588 31.08L63.7988 30.92L63.2388 30.04H62.1188ZM70.2788 30.92L70.6788 31.64L70.5988 30.2L70.2788 30.92ZM71.0788 32.12L70.9988 33.24L71.6388 33.96L72.2787 34.52L72.4388 35.08L72.9188 34.28L72.7588 33.88L72.6788 33.64L72.1988 34.04L71.9588 33.32L73.3188 32.2L73.7188 32.12L73.2388 30.28L72.1988 30.52L71.9588 31.72L71.0788 32.12ZM64.3588 32.04L65.3988 31.72L63.6388 31.32L64.3588 32.04ZM62.2787 31.48L61.7988 31.64L61.7188 32.12L62.5188 32.28L62.2787 31.48ZM82.9188 31.88L83.4788 31.48H83.0788L82.9188 31.88ZM88.0388 32.84L89.6388 32.04L88.9188 31.56L88.1188 31.96L88.0388 32.84ZM74.0388 31.72L74.9188 32.28L75.7988 31.72H74.0388ZM66.2788 32.04L65.3188 32.12L66.4388 33.72L66.8388 32.84L66.2788 32.04ZM68.3588 32.52L68.1188 32.12H67.6388L68.1988 32.92L68.3588 32.52ZM81.8788 34.2L81.6388 33.72L82.0388 33.4L81.7188 32.68L82.1188 32.52L82.0388 32.12L81.2388 32.76H80.7588L80.8388 33.16H80.3588L81.2388 35L81.8788 34.2ZM84.0388 32.92L84.1188 32.2L83.6388 32.76L84.0388 32.92ZM63.7988 33.96L64.3588 33.56L64.2788 35L64.9188 34.68V33.96L64.3588 33.56L64.8388 33.24L64.4388 32.44L64.0388 32.28L63.6388 32.68L63.3988 33.4L63.7988 33.96ZM88.8388 36.52L88.6788 36.12L89.1588 35.72L88.9188 34.84L88.2788 35.48V34.52L85.7988 34.36L85.1588 35.08L84.8388 34.92L84.4388 34.04L85.3988 33.96H86.0388L85.6388 33.32L85.0788 32.36L84.5988 33.16L84.9188 33.72L84.3588 34.04L83.9588 33.88L84.1188 34.76L83.3988 34.84L82.2788 35.72L83.3188 35.88L83.4788 36.28H83.8788L83.7188 36.92L85.3988 37.16L85.8788 37.32L86.4388 36.76L85.4788 36.04L86.2788 36.28L86.6788 35.8L86.4388 36.2H87.2388L87.6388 36.12L88.2788 36.28L88.5988 36.92L88.8388 36.52ZM77.0788 32.76L76.7588 33.24L76.6788 32.44L77.0788 32.76ZM89.0788 34.52L89.4788 34.2L89.9588 33.88H90.5188L90.9188 33.24L90.5188 32.52L89.9588 33.48H89.4788L89.2388 34.12L89.0788 34.52ZM69.7188 32.68L70.4388 33.08L70.1988 32.68H69.7188ZM81.9588 33.56L82.6788 34.36L83.6388 34.12L83.0788 33.96L83.3188 33.08L82.6788 32.92L81.9588 33.56ZM88.3588 33.96L88.1988 33.56L89.6388 33.32L88.8388 33L88.1188 33.56L87.4788 33.8L87.0788 33.72L87.4788 34.12L88.3588 33.96ZM76.1188 33.96L75.7988 33.16L74.9188 33L75.5588 34.68L76.1188 33.96ZM61.9588 33.72L63.5588 33.8L63.1588 33.08L62.3588 33L61.9588 33.72ZM76.6788 35.08L77.4788 33.8L77.3188 33.72H76.6788L76.2788 34.44L76.6788 35.08ZM77.6388 34.28L77.2388 34.76L77.4788 35.4L78.1188 35.48L78.5188 35L77.6388 34.28ZM60.1188 35.32L60.3588 34.84L60.1188 34.44L59.3988 34.84L59.6388 35.32H60.1188ZM73.3188 35.8L73.8788 35.64L75.1588 35.16L74.4388 34.52L73.5588 34.68L73.3188 35.8ZM79.7188 35L79.1588 35.08L78.6788 34.76V35.32L79.2388 35.56L79.7188 35ZM80.5188 35.72L80.7588 36.36L81.3188 36.76L81.3988 36.52L81.1588 35.64L80.9988 35.16L80.5188 35.72ZM69.1588 35.96L68.6788 35.32L68.7588 36.04L69.1588 35.96ZM68.1988 36.04L67.5588 35.48L66.6788 35.8L66.9988 36.6L68.0388 36.84L68.1988 36.04ZM64.1988 36.12V36.92H65.5588V36.12L64.9188 35.72L64.1988 36.12ZM91.2388 38.28L91.7988 37.48L91.4788 36.6L90.1988 37L89.7988 36.2H89.3188L88.9188 36.28L89.0788 37.32L89.6388 37.56L89.7988 38.52L90.6788 38.84L91.2388 38.68V38.28ZM78.7588 37.48L79.6388 37.24L80.2788 37.4L79.0788 36.6L78.5188 37L78.3588 36.52L77.7988 36.68L76.9188 36.84L77.1588 37.4L77.2388 38.68L77.1588 39L76.7588 39.16L76.0388 38.6L76.4388 38.12L75.5588 38.44L75.2387 37.96L75.9588 37.4L75.7988 36.44L74.2788 37.64L74.6788 37.72L73.9588 38.52L74.1988 39.08L73.7988 38.92L73.1588 39.48L73.6388 41L72.9188 41.16L72.9988 41.72L74.0388 42.12L73.9588 41.32L74.7588 41.16L74.1988 40.44L74.8388 39.88L75.7988 40.44L76.3588 40.2L76.4388 40.92L77.2388 39.8L77.4788 40.68L78.3588 40.92L77.3188 39.72L77.8788 40.12L78.6788 39.24L78.2788 39.32L78.5188 38.36L78.7588 37.48ZM81.8788 37.64L82.5988 37.96L82.8388 37.48L82.5188 37.08L82.0388 37.16L81.8788 37.64ZM91.1588 49.8L90.1988 48.36L90.8388 48.2L90.1988 48.04L89.4788 47.32L88.7588 46.36V47.64L90.1988 48.04L88.9188 47.72L89.6388 48.36H88.7588L88.0388 48.84L87.4788 49.24L87.5588 48.76L86.8388 49.24V49.72L86.5188 49.08L86.3588 48.68L85.7988 48.44L86.2788 48.04L86.0388 47.4L86.5188 46.84L87.3188 46.2L87.8788 45.8L88.1988 45.16L88.0388 45.96H88.6788L88.5988 44.92L89.2388 44.04L88.9188 45.56V46.52L89.7188 47L90.5988 45.64L89.7988 45.08L89.2388 45.4L89.7188 44.68L89.3188 43.96L89.7188 43.56L89.2388 41.96L89.7988 42.04L89.5588 41.48L89.7988 40.76L89.3188 40.52L88.8388 41.72L88.2788 41.16L88.3588 41.56L87.2388 42.28V40.84L88.0388 41L88.5188 40.84L88.3588 40.28L89.0788 40.44L89.3188 40.04L89.7188 40.28L89.8788 39.64L90.2788 39.56L89.3188 39.08L89.4788 38.6L89.6388 39.24L89.7988 38.76L89.4788 38.6L88.9188 38.44L88.5188 38.84L88.5988 39.32L88.1188 39.8L87.0788 39.96L87.5588 39.24L88.0388 38.92L87.9588 38.36L87.2388 39.08L86.8388 39.24L86.1988 38.92L85.9588 38.44H85.0788L85.3988 39.08L85.7188 39.56L85.3188 40.12L85.6388 39.64L84.9188 39.96L84.1988 39.56H84.5988L84.7588 39.16L84.1188 39.48L83.7988 39.88L83.8788 38.68L84.9188 38.28L85.0788 37.32L83.5588 38.6L83.3188 39.16L83.4788 40.2L82.8388 40.36L82.3588 40.52L82.9188 40.68L83.4788 40.2L83.8788 40.6L84.1188 41H84.9988L85.6388 41.32L85.8788 41.96L86.8388 41.8L86.5988 42.52L85.6388 42.12L85.3188 41.64L84.1188 41.4L84.5188 42.2L84.3588 43.08L83.9588 43.32L83.8788 42.76L83.7988 42.28L83.3988 41.72L83.8788 41.64H83.3188L82.9988 42.04L82.3588 41.72L82.2788 41.08L81.6388 40.84L81.7988 40.28L82.9988 39.64H81.8788L81.3988 39.8H80.9188L79.6388 39.88L78.6788 40.36V41.4L79.5588 41.08L80.0388 41.56L80.4388 41.64L79.8788 43.16L80.3588 43.8L79.7988 43.56L80.1188 44.04L78.5988 44.84L78.2788 44.2L78.6788 42.84L78.7588 42.44L77.8788 42.36L79.0788 42.04L78.4388 41.56H77.4788L77.3988 42.44L76.9988 42.92L77.2388 43.4L75.9588 43.64L75.4788 43.4L74.8388 43L74.1188 42.36H72.9988V43.88L72.7588 44.2L72.9988 45.24L72.3588 45.96L73.0788 46.6L73.5588 47.64L73.7188 48.12H73.9588L74.0388 48.6L75.1588 49.48L75.6388 49.64L75.8788 50.28L75.0788 50.52L75.7988 50.84L74.9188 50.6L73.8788 49.72L73.9588 50.04L72.5988 50.2L72.6788 51L73.9588 51.48L74.6788 52.44L74.1988 53.16L74.9988 53.72L74.5988 53.8L74.5188 54.28H73.4788L73.1588 54.84L73.6388 55.56L73.5588 54.92L74.1188 55L73.6388 56.04L73.0788 56.28L73.6388 56.52L73.4788 57L74.6788 55.96L74.2788 55.4L75.3188 55.8L76.1188 55.4L77.2388 55.08L77.5588 53.96V53.56L78.0388 53.32L78.1188 52.76L77.6388 52.44L77.1588 52.92L76.9988 52.36L76.0388 52.6L76.1988 51.64L76.4388 52.12L76.9988 51.4L76.9188 51L77.4788 50.52L77.3188 49.8L76.5988 49.88L76.2788 49.48V49.16H76.9988L77.5588 50.04L78.5988 49.88L78.9188 49.24L78.6788 50.36L77.8788 50.84L77.3188 51.96L78.5988 53.16L79.3188 52.44L79.4788 51.72L79.7988 52.36H80.6788L81.1588 51.64L80.5188 51.08L81.4788 50.92L80.8388 50.68L80.3588 50.6L80.8388 50.28V49.16H80.1988L80.9188 48.76V47.72L79.6388 47.8L78.9988 47.24L78.1988 47.48L78.5188 48.44L78.1188 49.08L77.3988 49.16L77.7988 48.76L77.0788 48.68L76.7588 48.36L77.2388 48.68L78.0388 48.2V47.8L78.1988 47.16L77.7988 46.84L79.1588 46.6L80.0388 46.28H80.1988L80.5988 46.52L80.9188 46.92L81.5588 45.32L80.6788 45.48L80.5188 45.88L80.0388 45.72L80.1188 45.32L81.3988 44.36L81.7988 44.44V43.56L82.4388 43.24V43.72L83.3188 43.64V44.12H82.7588L82.9188 44.52L82.1988 43.8L81.9588 44.76L82.5988 45.4L83.5588 44.92L84.2788 45.32V44.76L84.4388 45.48L84.9188 45.96L84.5988 46.2L83.9588 46.36L83.1588 46.68L83.0788 47.08L82.8388 47.48L82.9988 47.88H82.3588L82.8388 47.08L82.9988 46.68L82.8388 46.28L82.2788 46.68L81.9588 46.04L81.3188 46.36L81.2388 47.08L81.9588 48.52L83.4788 48.76L83.2388 48.2H84.0388L84.6788 48.6L84.9188 47.8L85.3188 47.72L85.3988 48.52L84.9988 48.76L85.4788 49.4L84.7588 48.92L84.2788 49.16L83.7188 48.36L83.3988 49L83.7988 49.48L83.4788 49.64L83.7188 50.6H85.4788L85.8788 51.08L86.0388 50.6L86.8388 51.08L86.6788 50.36L86.8388 49.96L86.9188 50.36L86.9988 51.16L87.2388 50.68L87.7988 50.92L88.4388 50.36L88.9188 50.84L89.7988 50.6L89.8788 50.2L90.2788 50.44L91.1588 49.8ZM71.8788 39.32L72.9188 39.08L73.2388 38.04L72.4388 37.32L71.4788 37.88L71.1588 38.6L71.8788 39.32ZM87.9588 37.96L87.7188 37.4L87.0788 37.32L86.9188 38.36L87.5588 38.44L87.9588 37.96ZM66.7588 38.68L66.9988 38.2L66.4388 37.4L65.4788 37.48L65.0788 38.36L65.5588 38.68L65.7988 39.24L66.6788 39.16L66.7588 38.68ZM79.5588 39.4L80.0388 39.56L80.6788 38.2L79.7988 37.88L79.1588 38.36L79.5588 39.4ZM81.3988 37.96L81.2388 39.72L82.0388 39.4L82.1188 38.52L81.3988 37.96ZM82.5988 38.68L82.5188 38.92L83.2388 39L83.0788 38.6L82.5988 38.68ZM68.9988 39.64H69.6388L68.5988 39.16L68.9988 39.64ZM68.5188 41.24L69.1588 40.36L67.6388 41.08L67.0788 40.6L66.9188 41.24L67.3988 41.64L67.7188 41.16L68.5188 41.24ZM76.5988 42.04L76.9988 41.96L77.2388 41.4L76.8388 40.92L75.8788 41.4L76.0388 41.88H75.4788L76.2788 42.28L76.5988 42.92V42.04ZM78.2788 41.08H77.4788L77.7188 41.48H78.1188L78.2788 41.08ZM75.2387 41.72L74.5188 41.4L74.5988 41.8L75.2387 41.72ZM62.1188 42.92V42.04L61.3188 41.64L60.5988 42.92L61.3988 43.4L62.1188 42.92ZM81.0788 42.6L81.1588 42.2L80.5188 41.72L81.7188 42.2L81.0788 42.6ZM88.1188 42.92L87.3988 42.6L88.1988 42.44L88.5188 42.2L88.5988 42.68V43.08L88.1188 42.92ZM84.9988 43.96L84.2788 44.52L84.3588 43.08L84.8388 43.4L85.6388 43L86.0388 43.08L86.7588 42.68L86.9988 43.64L86.6788 44.28H86.1988L86.4388 43.8L85.5588 43.4L84.9988 43.96ZM81.3188 42.84L80.5188 43.64L80.5988 43.24L81.3188 42.84ZM77.7188 43.72L78.0388 44.12L77.0788 44.04L77.9588 44.6V46.04L77.3988 45.72L76.9988 45.88V46.44L76.6788 46.84L77.3188 47.72L76.7588 48.04L76.4388 47.24L75.7988 48.12L75.3188 47L75.7988 46.76L76.3588 46.84L75.7988 46.12H75.3188L75.0788 46.52L74.5188 46.44L74.9988 46.2L74.8388 45.8L75.0788 45.16L75.2387 45.72L76.0388 45.8L75.8788 45.4L76.6788 45.16L77.6388 45.08L76.8388 43.88L77.7188 43.72ZM80.3588 44.52L80.0388 45.16L79.4788 44.52H80.3588ZM87.1588 48.28L87.8788 48.12L88.5988 48.04L88.2788 47.56L87.6388 47.8L87.5588 47.4L87.2388 47.32L86.9188 46.92L86.6788 47.72L86.5988 48.36L87.1588 48.28ZM78.9988 48.92L78.1988 49.08L78.6788 48.92L79.0788 48.76L79.7988 49.16L78.9988 48.92ZM74.8388 50.28L75.2387 50.2L74.9988 49.48L74.8388 50.28ZM73.9588 50.04L74.0388 50.6L73.9588 50.04ZM81.2388 50.44L81.6388 50.36L80.9988 50.04L81.2388 50.44ZM87.5588 61.56L87.4788 60.36L87.1588 60.04L86.2788 60.28L85.4788 62.2L85.3188 61.56L85.6388 60.52L84.9988 60.2L84.5988 60.76L83.7188 61.16L83.5588 61.08L83.4788 59.96L83.8788 59.88L84.0388 59.32L82.4388 59.48L81.8788 59.4L81.9588 59.96L81.1588 60.2L81.5588 60.28L80.9988 60.6L80.9188 60.84L81.0788 61.72L82.0388 62.04L81.9588 61.48L82.2788 62.04L82.5188 61.64L83.3188 61.8L83.7988 61.48L83.7188 61.88L82.5188 63.56L82.7588 64.2L82.2788 64.28H81.8788L81.1588 64.04L80.5988 64.52L80.5188 65.16L81.2388 65.48H80.6788L80.2788 64.76L79.7988 65.64L79.6388 64.6L79.1588 64.28V64.04L77.6388 63.64L77.3188 63.08L76.9188 63.32L76.7588 62.92L77.7988 62.76L77.7188 61.8L77.3188 61.64L76.1188 60.44L75.9588 61L75.6388 60.36L74.9188 60.28L74.3588 59.88L73.7988 60.6V61L73.2388 61.32L73.7988 63.16L73.5588 62.76L73.3188 63.24L73.6388 63.72H74.1988L73.9588 63L74.3588 62.68L74.6788 62.04L75.8788 61.48L75.7988 62.12H75.1588L75.5588 62.6L76.1188 62.52L76.3588 62.92L76.9188 63.4V64.12L77.6388 64.44L77.1588 64.84L78.2788 65.24L78.0388 65.72L77.6388 65.08L76.5188 65L77.4788 66.84L77.0788 67L76.9188 67.8L77.5588 68.28L77.9588 67.88V68.52L78.4388 68.84L77.7188 69.72L78.0388 70.76L79.1588 71L79.5588 69.08L78.9188 68.92L79.5588 68.52V67.96L80.1988 67.72L80.3588 66.92L81.1588 67.24L80.5988 67.48L80.1988 68.2L80.5988 68.84H81.3988L81.6388 68.44L82.1988 68.36L82.2788 69.08L83.4788 69.24L83.5588 70.2L84.4388 70.68L84.8388 71.48L85.5588 72.36L85.0788 72.92L85.5588 73L86.1188 72.76L87.0788 72.12L87.3988 71.64L87.0788 71.24H86.1188L85.9588 71L85.4788 71.08L84.9188 71.48V70.28L85.3188 70.12V69.64L85.4788 70.28L85.7988 69.16L85.3188 69.64L84.9188 69.56L84.7588 69.4L84.4388 68.92L84.9988 68.44L85.3988 68.84L85.8788 68.36L85.7188 67.64L84.9988 67.48L84.5988 67.88L83.7988 67.72L83.4788 68.12L82.8388 67.4L84.0388 66.6H84.5188V67H85.2388L84.9188 66.44L84.5188 66.6L84.7588 66.12L85.0788 65.56L84.3588 65.16L83.7988 65.24L82.9988 64.52L82.9188 63.72L83.7988 63.64L84.1988 63.56V64.52L84.5188 64.92H85.8788L86.1188 64.52L85.4788 64.2L85.3988 63.16L85.8788 62.68L86.2788 62.44L86.6788 62.52L86.5188 61.48L86.9188 62.04L87.4788 62.2L86.8388 62.28L86.9988 63.4L86.0388 63.16L86.1988 63.64L87.6388 63.56L88.0388 63.32V62.76H88.9988L89.8788 62.6L89.0788 61.72L89.6388 61.4L89.7188 60.2L90.1988 60.28L90.6788 59.64L90.4388 58.92L88.9988 59L88.7588 58.6L89.5588 58.2L89.7188 57.32L89.8788 56.76L90.5188 56.52L90.5988 55.88L91.3188 56.04L90.6788 55.4L90.1988 55.24L90.1188 54.84L89.2388 55L88.8388 55.08L88.7588 55.48L88.6788 54.68L88.9188 54.2L89.8788 54.36L88.9988 53.64L88.5188 53.32L88.7588 52.2L89.6388 51.96L89.1588 51.72L88.8388 51.16L87.8788 51.08L87.3188 51.8L87.4788 52.2L87.2388 52.36L86.8388 52.76L87.1588 53.16L86.5988 52.6L86.1988 52.68L85.2388 52.44L84.9988 51.64L83.7988 51.4L83.0788 51.64L82.1188 50.6L81.5588 51.32L82.1188 51.48L81.6388 51.96L81.7988 52.84L82.5988 53.08L82.9188 52.2L83.1588 52.76L82.5988 53.16L83.4788 53.08L83.2388 53.4L82.7588 53.32L82.0388 53.56L81.7188 53.08L81.2388 54.04L80.5988 53.96L80.5188 53.56L80.3588 54.36L81.7988 55L82.0388 55.48L81.4788 56.6L80.1188 57L78.5988 56.2L78.4388 56.6L78.0388 56.44L78.1188 57.24L77.9588 57.64L78.3588 57.96L78.1188 58.28L78.1988 58.68L78.1188 59.56L79.3188 60.04V60.44L79.5588 60.52L80.3588 60.28L80.7588 59.32L80.2788 58.76L80.0388 58.52H80.1188L80.2788 58.76L80.5188 58.92L81.8788 58.28L82.2788 58.6L82.1988 59.32L82.5988 58.84L83.1588 59.32L83.2388 58.6L83.7188 59.24L83.6388 58.76L83.4788 58.04L83.7988 58.28L84.5988 59.4L84.9988 60.2H85.5588L85.7188 59.8L86.1188 60.12L86.3588 59.16L86.0388 58.84L86.4388 59.08L86.0388 58.12L86.5188 57.64L86.8388 58.36V59.48L87.9588 59.96L88.1988 60.6L88.3588 59.16H88.4388L88.5988 59.56L88.4388 61.16L88.3588 61.48H87.8788L87.7988 62.12L87.5588 61.56ZM74.7588 51.8L74.8388 52.44L74.5988 51.48L73.9588 50.92L74.4388 50.68L74.8388 50.76L74.7588 51.8ZM84.8388 51L85.0788 51.8L85.5588 51.72L85.3188 50.92L84.8388 51ZM72.9988 52.6L73.4788 52.92L73.9588 52.76L74.0388 52.2L72.9988 52.6ZM80.8388 52.92L81.3188 53.24L81.8788 53L80.8388 52.92ZM85.9588 52.92L86.9188 53.96L87.1588 53.64L86.9988 54.04L86.5188 53.96L86.0388 54.36L86.1988 54.76L86.7588 55.4L86.1188 55.72V56.52L86.8388 55.48L87.4788 55.24H88.5188L87.5588 55.4L87.2388 56.36L87.4788 56.44L86.9988 56.6L87.2388 57.4L88.1988 56.92L88.9988 56.76L89.4788 56.92L88.9988 57.32H87.9588L87.3988 57.48L87.2388 58.2L87.0788 57.64L86.5988 57.24L85.9588 56.68L85.4788 56.28L84.6788 56.12L84.2788 56.2L84.4388 55.72L85.5588 55.88L86.2788 54.92L86.1988 54.76L85.9588 54.44L86.0388 54.36L85.7988 53.72L85.5588 53.32L85.9588 52.92ZM79.4788 55.08L78.0388 53.8L77.8788 54.76L78.7588 55.32L79.4788 55.08ZM74.8388 54.76L74.6788 54.36L75.3988 54.04L74.8388 54.76ZM83.4788 54.52L83.8788 54.36L84.1188 54.28L83.7988 54.76L83.4788 54.52ZM81.2388 55.56L79.3188 55.16L80.1188 55.88L81.2388 55.56ZM73.7988 56.84L74.1188 58.04L73.9588 58.6L74.5988 59.32L75.6388 59.08L73.9588 58.6L74.5188 58.44L74.9988 58.28L75.2387 57.4L75.7988 57.16L75.8788 56.6L75.9588 56.2L76.7588 56.76V56.36L77.9588 55.72L77.8788 55.32L77.4788 55.24L77.2388 55.8L76.3588 55.88L75.3188 56.52L73.7988 56.84ZM84.1188 55.56L82.9988 56.36L82.5988 56.04L83.1588 55.72L82.7588 56.12L83.3988 55.56L83.5588 55.24L84.1188 55.56ZM81.4788 57.24L81.9588 56.44L81.6388 57.24L83.5588 57L84.1188 57.24L82.1188 57.64L81.4788 57.24ZM77.0788 58.12L77.6388 57.8L77.0788 57.48V58.12ZM84.1988 57.64L84.3588 57.8L83.7988 57.56L84.1988 57.64ZM79.4788 58.12L80.0388 58.52L79.0788 58.68L78.5188 58.44L78.9188 58.12H79.4788ZM76.5988 60.04L77.4788 58.84L76.6788 58.28L76.3588 58.92L75.7988 60.28L76.5988 60.04ZM79.7188 61.24L79.8788 60.76L78.4388 60.44L77.8788 59.56L77.3988 60.44L78.8388 61.88V62.76H79.3988L78.8388 62.92L78.6788 63.64L79.7988 63.32L80.1188 63.72L80.6788 63.08L81.7188 62.92L81.5588 61.96L80.2788 61.48L80.5188 60.92L79.7188 61.24ZM83.0788 60.6L83.3988 60.36L82.9988 61.4L83.0788 60.6ZM74.3588 63.4L74.9988 63.32L75.2387 62.68L74.8388 62.2L74.3588 63.4ZM90.4388 67.96L89.9588 67.24L90.9188 67.08L89.9588 66.2L90.1188 65.48L89.8788 64.28L90.2788 63.96L89.7188 63.24L89.2388 62.84L88.1988 63.16L88.9188 63.88L87.9588 64.12L87.7988 64.76L86.1988 64.28L85.9588 65.56L86.5988 66.2L85.6388 65.96L85.4788 66.44L85.8788 66.92L86.4388 66.76L86.6788 66.28L87.6388 67.08L87.9588 66.92V67.4H88.1188L88.2788 67.88L88.7588 67.72L88.3588 67.96V68.52L89.3188 67.72L89.8788 67.88L90.4388 67.96ZM76.2788 64.76L76.6788 64.52V64.04L76.2788 63.8L75.8788 64.12L76.2788 64.76ZM75.1588 67.48L75.8788 68.28L76.3588 67.8L76.2788 67.08L75.5588 66.84L75.1588 67V66.2L75.8788 66.12L75.2387 65.72L74.9188 65.08L75.8788 65.24L75.6388 64.52L74.3588 64.36L73.4788 64.04L73.5588 64.68L73.8788 65L74.3588 65.96L74.9188 66.04L74.2788 66.44L73.8788 66.28L73.1588 67L74.0388 67.96L74.3588 68.36V68.76L74.5988 68.12L75.1588 67.48ZM78.4388 67.16L78.6788 67.56H78.1188L78.4388 67.16L77.7188 66.68L78.1188 65.88L78.6788 66.12H79.5588L78.9188 66.76L78.2788 66.92L78.4388 67.16ZM89.0788 70.12L89.5588 69.56L89.3988 69.16L88.4388 68.84H87.9588L87.3188 68.12L86.8388 68.84L86.3588 69.08H85.9588L86.7588 70.6L87.2388 69.88L86.9188 69.32L87.6388 69.4L87.5588 70.04L88.5188 70.12L88.6788 70.6L89.0788 70.12ZM84.6788 73.24L84.7588 72.84H84.2788L84.1188 71.72L84.5188 71.8L84.0388 71.4L83.7188 71.24L83.2388 71.08L84.1188 71L83.2388 70.52L82.5188 70.2L82.1988 69.48L82.1188 68.76L81.8788 69.32L82.1188 69.96L82.5188 70.2L82.6788 71.16L82.9988 72.04L82.5188 71.32L81.8788 71.8V72.6L82.5988 72.92L82.9988 72.68L83.3988 73.4L83.8788 72.68L84.2788 73.48L84.6788 73.24ZM73.6388 68.92L72.9988 69.16L72.9188 69.8L73.4788 70.12L74.0388 69.88L73.6388 68.92ZM74.8388 70.04L74.9188 69.24L74.5188 69.4L74.8388 70.04ZM76.1188 70.44L76.7588 70.36V70.28L76.9188 69.8L76.5188 69.24L76.1188 70.44ZM79.7988 71.8L80.4388 71.24L80.2788 70.44L79.5588 70.2L79.7988 71.8ZM73.8788 73.24L74.8388 72.92L74.3588 71.24L73.3188 71.48L73.0788 72.52L73.8788 73.24ZM88.9988 72.92L89.4788 73.08L88.8388 72.36L88.9988 72.92ZM86.9188 73.32L87.7188 73.88L86.9988 72.36L86.9188 73.32ZM90.3588 73L90.1988 72.6L89.7988 72.76L90.3588 73ZM78.2788 74.12L78.5188 73.32L77.6388 73.08L77.7188 73.56L77.4788 74.28L78.2788 74.12Z" fill="#E10600"/>
</svg>
