<svg width="51" height="50" viewBox="0 0 51 50" fill="none" xmlns="http://www.w3.org/2000/svg">
<rect width="51" height="50" fill="#1E1E1E"/>
<rect x="0.705078" width="50" height="50" rx="25" fill="#E10600"/>
<path d="M25.5 23.4167C27.5135 23.4167 29.1458 21.7844 29.1458 19.7708C29.1458 17.7573 27.5135 16.125 25.5 16.125C23.4865 16.125 21.8542 17.7573 21.8542 19.7708C21.8542 21.7844 23.4865 23.4167 25.5 23.4167Z" stroke="white" stroke-width="2" stroke-linecap="round" stroke-linejoin="round"/>
<path d="M16.125 34.25V34.875H34.875V34.25C34.875 31.9165 34.875 30.7497 34.4209 29.8584C34.0214 29.0744 33.384 28.4369 32.5999 28.0374C31.7086 27.5833 30.5419 27.5833 28.2083 27.5833H22.7917C20.4581 27.5833 19.2914 27.5833 18.4001 28.0374C17.616 28.4369 16.9786 29.0744 16.5791 29.8584C16.125 30.7497 16.125 31.9165 16.125 34.25Z" stroke="white" stroke-width="2" stroke-linecap="round" stroke-linejoin="round"/>
</svg>
