<svg width="21" height="21" viewBox="0 0 21 21" fill="none" xmlns="http://www.w3.org/2000/svg">
<rect width="21" height="21" fill="#1E1E1E"/>
<path d="M10.4998 8.41667C12.5134 8.41667 14.1457 6.78437 14.1457 4.77083C14.1457 2.7573 12.5134 1.125 10.4998 1.125C8.4863 1.125 6.854 2.7573 6.854 4.77083C6.854 6.78437 8.4863 8.41667 10.4998 8.41667Z" stroke="white" stroke-width="2" stroke-linecap="round" stroke-linejoin="round"/>
<path d="M1.125 19.25V19.875H19.875V19.25C19.875 16.9165 19.875 15.7497 19.4209 14.8584C19.0214 14.0744 18.384 13.437 17.5999 13.0375C16.7086 12.5834 15.5419 12.5834 13.2083 12.5834H7.79167C5.45812 12.5834 4.29135 12.5834 3.40005 13.0375C2.61603 13.437 1.97861 14.0744 1.57914 14.8584C1.125 15.7497 1.125 16.9165 1.125 19.25Z" stroke="white" stroke-width="2" stroke-linecap="round" stroke-linejoin="round"/>
</svg>
