<svg width="51" height="50" viewBox="0 0 51 50" fill="none" xmlns="http://www.w3.org/2000/svg">
<rect width="51" height="50" fill="#1E1E1E"/>
<rect x="0.918091" width="50" height="50" rx="25" fill="#E10600"/>
<path d="M22.5228 35.4851C20.7774 34.9654 19.2239 34.0007 17.9937 32.7224C18.4526 32.1785 18.7292 31.4757 18.7292 30.7084C18.7292 28.9825 17.3301 27.5834 15.6042 27.5834C15.4998 27.5834 15.3966 27.5885 15.2948 27.5985C15.1561 26.9207 15.0833 26.2189 15.0833 25.5001C15.0833 24.4112 15.2504 23.3614 15.5603 22.3747C15.5749 22.3749 15.5895 22.3751 15.6042 22.3751C17.3301 22.3751 18.7292 20.9759 18.7292 19.2501C18.7292 18.7546 18.6139 18.2861 18.4086 17.8698C19.6133 16.7497 21.0836 15.9115 22.7146 15.46C23.2315 16.473 24.2847 17.1667 25.5 17.1667C26.7153 17.1667 27.7685 16.473 28.2854 15.46C29.9164 15.9115 31.3867 16.7497 32.5914 17.8698C32.3861 18.2861 32.2708 18.7546 32.2708 19.2501C32.2708 20.9759 33.6699 22.3751 35.3958 22.3751C35.4105 22.3751 35.4251 22.3749 35.4397 22.3747C35.7496 23.3614 35.9167 24.4112 35.9167 25.5001C35.9167 26.2189 35.8439 26.9207 35.7052 27.5985C35.6034 27.5885 35.5003 27.5834 35.3958 27.5834C33.6699 27.5834 32.2708 28.9825 32.2708 30.7084C32.2708 31.4757 32.5474 32.1785 33.0063 32.7224C31.7761 34.0007 30.2226 34.9654 28.4772 35.4851C28.0744 34.225 26.8938 33.3126 25.5 33.3126C24.1063 33.3126 22.9256 34.225 22.5228 35.4851Z" stroke="white" stroke-width="2" stroke-linejoin="round"/>
<path d="M25.5 29.1458C27.5135 29.1458 29.1458 27.5135 29.1458 25.5C29.1458 23.4865 27.5135 21.8542 25.5 21.8542C23.4865 21.8542 21.8542 23.4865 21.8542 25.5C21.8542 27.5135 23.4865 29.1458 25.5 29.1458Z" stroke="white" stroke-width="2" stroke-linejoin="round"/>
</svg>
