<svg width="23" height="23" viewBox="0 0 23 23" fill="none" xmlns="http://www.w3.org/2000/svg">
<rect width="23" height="23" fill="#1E1E1E"/>
<path d="M8.43948 21.0251C6.69412 20.5054 5.14052 19.5407 3.91035 18.2624C4.36927 17.7185 4.64583 17.0158 4.64583 16.2484C4.64583 14.5225 3.24672 13.1234 1.52083 13.1234C1.41643 13.1234 1.31322 13.1286 1.21145 13.1386C1.07281 12.4607 1 11.7589 1 11.0401C1 9.95123 1.16707 8.90139 1.47697 7.91477C1.49157 7.91498 1.50619 7.91508 1.52083 7.91508C3.24672 7.91508 4.64583 6.51597 4.64583 4.79008C4.64583 4.29461 4.53052 3.82613 4.32531 3.40988C5.52995 2.28977 7.00026 1.4515 8.6313 1C9.14813 2.01305 10.2014 2.70677 11.4167 2.70677C12.6319 2.70677 13.6852 2.01305 14.202 1C15.8331 1.4515 17.3034 2.28977 18.508 3.40988C18.3028 3.82613 18.1875 4.29461 18.1875 4.79008C18.1875 6.51597 19.5866 7.91508 21.3125 7.91508C21.3271 7.91508 21.3418 7.91498 21.3564 7.91477C21.6663 8.90139 21.8333 9.95123 21.8333 11.0401C21.8333 11.7589 21.7605 12.4607 21.6219 13.1386C21.5201 13.1286 21.4169 13.1234 21.3125 13.1234C19.5866 13.1234 18.1875 14.5225 18.1875 16.2484C18.1875 17.0158 18.4641 17.7185 18.923 18.2624C17.6928 19.5407 16.1392 20.5054 14.3939 21.0251C13.991 19.765 12.8104 18.8526 11.4167 18.8526C10.0229 18.8526 8.84229 19.765 8.43948 21.0251Z" stroke="white" stroke-width="2" stroke-linejoin="round"/>
<path d="M11.4166 14.6859C13.4301 14.6859 15.0624 13.0536 15.0624 11.0401C15.0624 9.02652 13.4301 7.39423 11.4166 7.39423C9.40304 7.39423 7.77075 9.02652 7.77075 11.0401C7.77075 13.0536 9.40304 14.6859 11.4166 14.6859Z" stroke="white" stroke-width="2" stroke-linejoin="round"/>
</svg>
