<svg width="22" height="21" viewBox="0 0 22 21" fill="none" xmlns="http://www.w3.org/2000/svg">
<rect width="22" height="21" fill="#1E1E1E"/>
<path d="M8.89583 8.41667C10.9094 8.41667 12.5417 6.78437 12.5417 4.77083C12.5417 2.7573 10.9094 1.125 8.89583 1.125C6.88229 1.125 5.25 2.7573 5.25 4.77083C5.25 6.78437 6.88229 8.41667 8.89583 8.41667Z" stroke="white" stroke-width="2" stroke-linecap="round" stroke-linejoin="round"/>
<path d="M20.875 5.8125L16.7084 9.97917" stroke="white" stroke-width="2" stroke-linecap="round" stroke-linejoin="round"/>
<path d="M16.7084 5.8125L20.875 9.97917" stroke="white" stroke-width="2" stroke-linecap="round" stroke-linejoin="round"/>
<path d="M1.08337 19.25V19.875H16.7084V19.25C16.7084 16.9165 16.7084 15.7497 16.2543 14.8584C15.8548 14.0744 15.2173 13.4369 14.4333 13.0374C13.542 12.5833 12.3752 12.5833 10.0417 12.5833H7.75004C5.4165 12.5833 4.24973 12.5833 3.35842 13.0374C2.57441 13.4369 1.93698 14.0744 1.53751 14.8584C1.08337 15.7497 1.08337 16.9165 1.08337 19.25Z" stroke="white" stroke-width="2" stroke-linecap="round" stroke-linejoin="round"/>
</svg>
