<svg width="72" height="72" viewBox="0 0 72 72" fill="none" xmlns="http://www.w3.org/2000/svg">
<rect width="72" height="72" fill="#15151e"/>
<path d="M60.705 11C46.8978 -2.80712 24.5121 -2.80712 10.705 11C-3.10216 24.8071 -3.10216 47.1929 10.705 61C24.5121 74.8071 46.8978 74.8071 60.705 61C74.5121 47.1929 74.5121 24.8071 60.705 11Z" fill="#E10600"/>
<path d="M32.8958 34.4167C34.9094 34.4167 36.5417 32.7844 36.5417 30.7708C36.5417 28.7573 34.9094 27.125 32.8958 27.125C30.8823 27.125 29.25 28.7573 29.25 30.7708C29.25 32.7844 30.8823 34.4167 32.8958 34.4167Z" stroke="white" stroke-width="2" stroke-linecap="round" stroke-linejoin="round"/>
<path d="M44.875 31.8125L40.7083 35.9792" stroke="white" stroke-width="2" stroke-linecap="round" stroke-linejoin="round"/>
<path d="M40.7083 31.8125L44.875 35.9792" stroke="white" stroke-width="2" stroke-linecap="round" stroke-linejoin="round"/>
<path d="M25.0833 45.25V45.875H40.7083V45.25C40.7083 42.9165 40.7083 41.7497 40.2542 40.8584C39.8547 40.0744 39.2173 39.4369 38.4333 39.0374C37.542 38.5833 36.3752 38.5833 34.0417 38.5833H31.75C29.4165 38.5833 28.2497 38.5833 27.3584 39.0374C26.5744 39.4369 25.9369 40.0744 25.5375 40.8584C25.0833 41.7497 25.0833 42.9165 25.0833 45.25Z" stroke="white" stroke-width="2" stroke-linecap="round" stroke-linejoin="round"/>
</svg>
